 <svg  version="1.0" xmlns="http://www.w3.org/2000/svg"  width="3072.000000pt" height="1020.000000pt" viewBox="0 0 1300.000000 450" display="block" preserveAspectRatio="none">  <g transform="translate(0.000000,1020.000000) scale(0.100000,-0.100000)" fill="#ffffff" stroke="none"> <path d="M10140 9353 c-8 -3 -48 -21 -88 -39 -41 -19 -75 -34 -77 -34 -4 0 -157 -70 -225 -103 -49 -24 -177 -140 -222 -201 l-28 -39 0 -253 0 -253 -97 -57 c-54 -31 -112 -67 -130 -80 -30 -23 -33 -23 -42 -6 -10 19 -26 187 -36 387 -10 189 -32 362 -51 390 -28 42 -68 65 -115 65 -39 0 -129 -32 -294 -105 -40 -18 -123 -45 -136 -45 -6 0 -34 21 -62 46 -28 25 -78 60 -112 77 -54 28 -69 31 -150 32 -137 0 -190 -28 -345 -184 -94 -94 -128 -153 -150 -258 -7 -35 -10 -82 -6 -105 3 -24 9 -60 12 -80 l6 -38 -116 0 c-111 0 -118 -1 -164 -30 -27 -16 -54 -30 -60 -30 -6 0 -20 13 -31 29 -42 58 -74 69 -286 91 -56 6 -132 19 -171 28 l-69 17 -6 70 c-4 54 -13 85 -40 135 -146 274 -474 337 -1014 195 -108 -28 -188 -52 -220 -65 -11 -4 -51 -18 -90 -30 -38 -12 -84 -28 -102 -36 -17 -8 -36 -14 -41 -14 -6 0 -26 24 -46 54 -75 114 -114 155 -156 166 -67 18 -83 11 -460 -199 -149 -84 -191 -115 -283 -210 -114 -118 -123 -160 -57 -271 45 -76 40 -86 -40 -80 -125 10 -161 4 -243 -34 -43 -21 -86 -36 -95 -34 -15 3 -19 31 -34 193 -9 105 -17 227 -17 272 -1 74 -22 275 -37 346 -3 16 -21 44 -40 63 -30 29 -41 34 -83 34 -49 0 -76 -9 -286 -100 -11 -5 -69 -29 -130 -55 -134 -56 -195 -96 -280 -187 -73 -76 -80 -91 -101 -193 -23 -110 -26 -111 -141 -117 -107 -6 -160 -19 -301 -78 -72 -30 -94 -36 -98 -25 -3 7 -1 23 6 34 33 62 52 157 48 236 -6 100 -38 164 -123 250 -101 103 -210 144 -400 152 -223 9 -451 -36 -817 -162 -119 -41 -163 -70 -261 -175 -107 -113 -108 -126 -34 -330 84 -234 119 -310 156 -341 19 -16 50 -32 69 -35 18 -4 37 -15 43 -26 10 -19 86 -226 114 -313 7 -22 47 -139 89 -260 43 -121 88 -251 101 -290 59 -176 88 -204 204 -196 47 4 123 53 382 245 l39 30 62 -63 c165 -167 346 -227 563 -187 117 21 224 71 378 176 27 18 50 30 52 28 10 -9 35 -155 42 -234 7 -92 23 -129 76 -168 27 -20 43 -21 254 -24 285 -4 309 1 398 76 135 114 119 106 157 86 18 -9 90 -55 161 -103 162 -109 173 -115 228 -115 65 0 117 34 228 149 l93 96 122 20 c318 50 440 101 639 268 59 50 111 91 115 91 8 0 42 -84 68 -170 32 -105 47 -135 82 -167 32 -30 41 -33 97 -33 38 0 120 15 221 40 219 56 290 81 431 151 l122 61 63 -44 c182 -130 330 -179 538 -180 176 -1 281 30 424 124 49 32 91 57 93 54 4 -3 25 -127 39 -224 7 -44 57 -99 104 -113 28 -9 97 -9 262 -2 l223 10 37 -28 c20 -16 49 -34 63 -39 33 -13 178 -13 365 0 142 10 146 11 195 45 27 19 80 63 117 98 l67 64 168 -6 c420 -15 674 -3 727 35 26 18 63 18 117 -1 83 -30 215 -40 355 -27 136 12 209 27 337 70 l77 25 28 -25 c47 -44 104 -60 175 -49 34 5 98 13 142 16 138 11 299 37 329 52 46 24 204 185 223 229 14 32 18 68 18 199 0 89 4 167 10 177 12 20 75 65 225 160 129 81 293 234 329 305 27 53 26 87 0 165 -36 106 -105 186 -222 256 -140 84 -245 96 -464 51 -56 -11 -66 -10 -103 6 -36 16 -49 17 -123 7 -45 -7 -122 -17 -172 -23 -166 -19 -203 -33 -284 -109 -31 -29 -39 -31 -80 -26 -140 17 -248 18 -326 2 -117 -25 -201 -52 -280 -90 -38 -19 -74 -31 -78 -27 -8 8 -15 161 -35 717 -10 259 -16 283 -82 316 -34 17 -89 22 -120 11z m-5 -175 c4 -13 19 -764 31 -1518 l6 -376 -24 -11 c-13 -6 -88 -14 -166 -18 l-142 -8 -10 27 c-10 26 -24 34 -34 17 -6 -10 -99 -23 -166 -23 -83 -1 -164 17 -205 45 -22 15 -44 27 -50 27 -16 0 -83 81 -111 135 -56 108 -68 161 -68 297 0 92 5 137 16 165 9 21 24 58 34 83 24 58 160 195 237 239 55 31 184 70 237 71 14 0 34 7 44 15 11 8 31 15 44 15 l24 0 -2 338 c-1 185 -2 345 -1 354 1 9 11 20 24 23 12 4 49 19 82 35 33 15 85 39 115 54 62 29 79 31 85 14z m-1877 -210 c45 -11 109 -52 144 -93 28 -33 24 -141 -7 -198 -14 -25 -33 -48 -43 -52 -9 -3 -46 -3 -82 1 -86 9 -138 48 -164 126 -18 52 -18 54 4 126 17 56 28 76 49 87 32 18 40 18 99 3z m-4540 -21 c6 -6 13 -62 16 -122 4 -61 13 -213 21 -340 8 -126 19 -297 24 -379 5 -81 14 -153 20 -159 11 -11 40 2 206 93 172 95 165 93 253 81 43 -6 115 -15 162 -21 130 -16 133 -17 117 -40 -8 -11 -54 -50 -103 -87 -49 -36 -93 -72 -97 -80 -4 -7 -12 -13 -17 -13 -5 0 -31 -17 -58 -37 -27 -21 -81 -63 -120 -93 -39 -30 -71 -62 -71 -71 -1 -15 33 -43 219 -179 26 -19 90 -67 143 -107 106 -81 101 -71 113 -237 l7 -99 -29 7 c-16 4 -31 11 -34 15 -3 3 -16 14 -30 23 -14 9 -50 35 -80 57 -30 23 -73 53 -96 69 -22 15 -85 60 -140 100 -191 140 -225 163 -234 157 -6 -4 -7 -17 -4 -31 6 -21 3 -24 -24 -24 -17 0 -32 -5 -34 -10 -2 -6 0 -48 4 -93 3 -45 7 -121 7 -169 1 -73 -2 -89 -16 -97 -19 -9 -328 -19 -337 -10 -8 8 -36 422 -36 533 0 56 -5 139 -10 186 -6 47 -15 204 -20 350 -5 146 -12 290 -15 320 -3 30 -7 81 -9 113 -4 67 -10 76 -36 59 -22 -13 -86 -16 -93 -4 -3 4 4 39 14 77 10 39 19 80 19 92 0 16 12 28 40 43 21 11 44 20 50 20 6 0 38 13 73 29 34 16 87 39 117 51 30 12 59 26 65 31 13 13 41 11 53 -4z m5246 -4 c3 -10 10 -99 16 -198 5 -99 15 -236 20 -305 6 -69 15 -215 20 -325 10 -209 19 -353 49 -775 10 -140 15 -258 12 -262 -10 -10 -315 -35 -327 -26 -16 12 -24 100 -34 353 -11 286 -26 575 -45 855 -9 124 -17 254 -18 290 -2 63 -3 65 -27 61 -14 -2 -41 -5 -60 -5 l-35 -1 3 45 c4 40 27 149 35 156 4 4 198 84 218 91 9 2 43 17 75 33 69 34 91 37 98 13z m-6957 -64 c120 -17 235 -96 283 -195 29 -59 22 -133 -21 -218 -42 -86 -185 -260 -328 -399 -71 -70 -121 -127 -121 -138 0 -10 12 -58 26 -106 14 -49 30 -101 34 -118 4 -16 24 -86 45 -155 51 -170 52 -174 23 -194 -12 -10 -51 -37 -85 -62 l-63 -44 -16 37 c-9 21 -20 52 -24 68 -5 17 -18 55 -30 85 -12 30 -25 69 -30 85 -5 17 -18 55 -30 85 -12 30 -25 69 -30 85 -5 17 -18 55 -30 85 -12 30 -25 69 -30 85 -11 41 -29 94 -45 130 -18 42 -36 96 -42 125 -3 14 -12 34 -19 45 -8 11 -14 29 -14 40 0 11 -14 51 -30 90 -17 38 -30 79 -30 92 0 35 -18 37 -56 4 -19 -17 -39 -31 -45 -31 -12 0 -79 143 -79 169 0 9 -7 26 -15 37 -8 10 -15 26 -15 35 0 9 -9 36 -19 60 -13 29 -17 48 -11 60 5 9 42 26 82 39 40 12 91 28 113 36 66 22 202 55 345 83 56 12 225 11 307 0z m3164 -122 c44 -67 86 -125 92 -129 29 -18 -31 -38 -223 -73 -47 -9 -116 -23 -155 -31 -109 -22 -120 -21 -155 30 -16 25 -30 48 -30 52 0 4 -7 15 -15 24 -20 22 -10 46 23 59 15 6 47 23 72 37 25 15 74 42 110 62 36 19 78 42 93 51 64 36 92 49 100 44 5 -3 44 -60 88 -126z m1215 122 c32 -5 73 -17 91 -25 17 -7 34 -14 38 -14 19 0 105 -78 135 -123 31 -47 35 -59 34 -118 0 -57 -6 -74 -44 -145 -24 -43 -61 -99 -82 -123 -21 -24 -35 -47 -32 -52 3 -5 24 -19 47 -31 23 -11 72 -52 110 -89 37 -38 69 -69 72 -69 3 0 5 14 5 30 0 35 23 41 40 10 17 -32 30 -23 30 23 0 57 29 230 40 241 6 6 15 4 23 -3 8 -6 77 -18 153 -25 142 -15 189 -26 196 -46 2 -7 0 -44 -4 -83 -11 -113 -10 -360 2 -429 20 -118 80 -228 123 -228 12 0 31 7 41 15 11 8 27 15 35 15 29 0 86 106 111 206 4 18 10 36 14 42 15 24 37 187 43 310 3 73 9 134 12 136 3 2 42 -1 86 -5 44 -5 107 -11 139 -14 72 -7 72 -7 92 -53 15 -35 16 -36 25 -14 11 28 25 28 40 0 12 -23 12 -23 22 7 14 42 24 52 65 66 20 6 65 24 98 40 34 16 68 29 76 29 8 0 18 4 24 9 21 21 116 52 129 41 8 -7 16 -89 24 -278 7 -147 18 -397 26 -557 17 -327 20 -434 14 -439 -7 -7 -329 -30 -334 -24 -11 11 -13 74 -20 509 -4 244 -10 447 -14 451 -12 14 -122 -37 -143 -67 -4 -5 -8 -33 -8 -61 0 -71 -38 -279 -61 -329 -5 -11 -13 -31 -19 -45 -11 -25 -20 -41 -54 -95 -38 -58 -112 -127 -171 -158 -58 -30 -66 -32 -202 -35 -151 -4 -141 -6 -303 53 -25 9 -59 27 -77 41 -17 13 -35 24 -39 24 -26 0 -144 158 -144 194 0 33 -30 16 -140 -81 -32 -28 -76 -63 -98 -76 -56 -36 -178 -87 -242 -102 -30 -7 -86 -22 -125 -33 -112 -32 -157 -43 -197 -49 -36 -5 -38 -3 -38 21 0 15 -7 43 -15 63 -8 19 -15 45 -15 56 0 19 -17 85 -43 167 -6 19 -14 53 -18 75 -4 22 -17 76 -29 120 -12 44 -25 98 -29 120 -8 39 -18 81 -46 180 -8 28 -22 86 -31 130 -10 44 -24 92 -31 107 -7 15 -13 45 -13 66 0 60 -20 70 -65 31 l-37 -33 -19 25 c-10 13 -23 38 -28 54 -5 17 -19 55 -31 85 -12 30 -25 66 -30 80 -5 14 -15 43 -23 65 -8 21 -13 45 -10 52 6 16 59 41 128 59 28 7 88 24 135 37 101 28 206 53 275 66 71 13 241 13 311 0z m5636 -450 c113 -25 236 -115 284 -211 27 -53 22 -78 -19 -99 -12 -7 -62 -39 -110 -71 -49 -33 -95 -57 -103 -54 -8 3 -19 16 -24 28 -21 51 -80 98 -123 98 -40 0 -132 -72 -156 -124 -11 -22 -25 -72 -32 -111 -15 -82 -15 -406 0 -480 5 -27 6 -54 1 -58 -4 -5 -25 -12 -46 -17 -39 -9 -271 -42 -309 -44 -17 -1 -22 9 -32 69 -7 39 -13 79 -14 90 -4 77 -22 97 -40 45 -6 -17 -18 -30 -27 -30 -10 0 -35 -17 -57 -38 -47 -44 -87 -71 -124 -82 -14 -5 -51 -18 -81 -30 -62 -24 -201 -44 -305 -44 -325 -1 -461 139 -442 455 8 124 18 172 50 240 15 31 27 59 27 62 0 4 16 29 36 57 54 75 157 144 254 169 25 7 61 16 80 21 46 12 154 12 219 0 114 -21 281 -105 281 -141 0 -18 -107 -152 -275 -344 -33 -38 -76 -90 -95 -115 -19 -24 -47 -58 -62 -74 -16 -17 -28 -34 -28 -38 0 -14 48 -9 87 9 98 42 130 62 185 112 32 29 60 52 61 50 13 -19 125 -157 139 -171 27 -27 41 -22 33 12 -8 37 7 39 39 5 13 -14 25 -25 28 -25 7 0 2 395 -7 637 l-8 202 24 5 c13 3 31 5 39 5 8 0 61 5 117 12 l102 11 31 -26 c34 -28 50 -31 78 -17 33 16 95 33 171 46 99 17 92 17 153 4z m-9091 -118 c185 -40 287 -120 338 -266 27 -78 30 -280 5 -359 -38 -116 -76 -179 -160 -263 -46 -46 -89 -83 -96 -83 -7 0 -31 -12 -52 -26 -38 -26 -137 -47 -216 -47 -120 0 -233 46 -301 121 -34 39 -75 113 -99 182 -34 97 -37 319 -5 380 8 16 15 38 15 49 0 11 14 36 30 54 17 19 30 39 30 44 0 15 123 121 185 158 33 20 72 39 88 42 15 3 45 12 65 19 50 18 74 17 173 -5z m2339 -61 c90 -30 165 -68 192 -97 28 -30 27 -31 -90 -170 -46 -54 -91 -107 -101 -118 -130 -156 -222 -264 -235 -274 -24 -20 -20 -41 10 -41 46 0 191 77 244 130 28 28 54 50 58 50 4 0 22 -21 40 -47 18 -27 57 -76 87 -111 30 -34 55 -71 55 -83 0 -22 -93 -119 -114 -119 -8 0 -19 -7 -26 -15 -7 -8 -20 -15 -30 -15 -10 0 -44 -12 -76 -26 -93 -41 -313 -60 -454 -40 -278 41 -386 334 -251 686 33 86 72 141 136 193 72 57 102 74 175 94 30 8 69 19 85 24 54 15 224 3 295 -21z m5998 -87 c-4 -22 -22 -20 -26 1 -2 10 3 16 13 16 10 0 15 -7 13 -17z m-1049 -535 c1 -133 -1 -158 -14 -158 -8 0 -18 12 -21 26 -9 35 1 308 12 325 15 25 22 -30 23 -193z m-5629 -285 c0 -7 -8 -13 -19 -13 -21 0 -55 45 -46 60 8 12 65 -29 65 -47z"/> <path d="M9756 8171 c-4 -5 -27 -20 -54 -32 -80 -38 -139 -96 -168 -166 -32 -74 -28 -117 17 -167 54 -62 163 -98 196 -65 6 6 26 14 45 18 l33 7 3 92 3 93 -31 10 c-16 6 -30 18 -30 27 -1 10 -3 40 -5 69 -4 44 -1 56 20 81 13 16 22 32 18 36 -9 9 -41 7 -47 -3z"/> <path d="M1780 8522 c-50 -24 -110 -72 -110 -88 0 -18 50 -195 62 -217 9 -17 11 -17 27 -3 10 9 25 16 34 16 15 0 35 19 119 114 15 17 34 38 42 47 24 25 73 123 69 137 -7 19 -199 15 -243 -6z"/> <path d="M6142 8582 c-29 -10 -58 -25 -63 -34 -6 -10 -16 -18 -24 -18 -23 0 -27 -18 -16 -73 28 -141 40 -206 46 -249 5 -42 9 -48 30 -48 13 0 27 5 30 10 3 6 12 10 20 10 21 0 151 127 215 211 71 92 91 146 66 184 -16 25 -19 25 -134 24 -78 -1 -135 -6 -170 -17z"/> <path d="M6353 8049 c-13 -13 -46 -33 -80 -48 -13 -6 -23 -14 -23 -19 0 -5 -12 -14 -26 -21 -26 -12 -27 -14 -21 -79 9 -108 28 -203 42 -209 14 -5 138 54 186 88 40 28 89 107 89 144 0 45 -85 149 -125 153 -17 2 -35 -2 -42 -9z"/> <path d="M10670 8011 c-126 -62 -180 -134 -180 -242 0 -88 22 -126 57 -98 9 8 24 13 33 11 11 -2 31 15 54 45 45 60 129 166 180 227 52 63 45 76 -41 75 -43 0 -81 -7 -103 -18z"/> <path d="M2855 8154 c-22 -13 -50 -28 -63 -34 -35 -15 -121 -107 -137 -147 -35 -84 -8 -160 75 -210 65 -40 118 -43 205 -12 66 23 119 65 151 118 26 43 57 166 52 206 -3 29 -28 49 -28 23 0 -20 -88 -106 -130 -128 -66 -33 -98 2 -87 96 5 46 29 84 54 84 7 0 13 7 13 15 0 23 -58 17 -105 -11z"/> <path d="M4935 8012 c-140 -79 -179 -139 -173 -265 4 -86 17 -106 52 -81 11 8 28 14 38 14 10 0 18 4 18 9 0 5 27 42 61 82 33 41 73 90 89 109 15 19 44 55 64 79 20 24 35 49 33 55 -6 19 -147 18 -182 -2z"/> </g> </svg> 